<svg width="19" height="19" viewBox="0 0 19 19" fill="none" xmlns="http://www.w3.org/2000/svg">
<path d="M8.23438 17.7124L0.809375 10.2874C0.696875 10.1749 0.617 10.053 0.56975 9.92178C0.52325 9.79053 0.5 9.64991 0.5 9.49991C0.5 9.34991 0.52325 9.20928 0.56975 9.07803C0.617 8.94678 0.696875 8.82491 0.809375 8.71241L8.23438 1.28741C8.44063 1.08116 8.69825 0.97316 9.00725 0.96341C9.317 0.95441 9.58438 1.06241 9.80938 1.28741C10.0344 1.49366 10.1518 1.75128 10.1615 2.06028C10.1705 2.37003 10.0625 2.63741 9.8375 2.86241L4.325 8.37491H16.8969C17.2156 8.37491 17.483 8.48253 17.699 8.69778C17.9143 8.91378 18.0219 9.18116 18.0219 9.49991C18.0219 9.81866 17.9143 10.0857 17.699 10.3009C17.483 10.5169 17.2156 10.6249 16.8969 10.6249H4.325L9.8375 16.1374C10.0438 16.3437 10.1518 16.6062 10.1615 16.9249C10.1705 17.2437 10.0625 17.5062 9.8375 17.7124C9.63125 17.9374 9.36875 18.0499 9.05 18.0499C8.73125 18.0499 8.45938 17.9374 8.23438 17.7124Z" fill="#2F80ED"/>
</svg>
