<svg width="21" height="105" viewBox="0 0 21 105" fill="none" xmlns="http://www.w3.org/2000/svg">
<path d="M10.5 20C11.7478 20.0016 12.9836 19.7566 14.1364 19.2791C15.2892 18.8016 16.3363 18.1009 17.2174 17.2174C18.1009 16.3363 18.8016 15.2892 19.2791 14.1364C19.7566 12.9836 20.0016 11.7478 20 10.5C20.0016 9.25221 19.7566 8.01641 19.2791 6.86361C18.8015 5.7108 18.1009 4.66373 17.2174 3.78256C16.3363 2.89907 15.2892 2.19843 14.1364 1.72091C12.9836 1.24338 11.7478 0.998391 10.5 1.00001C9.25221 0.998417 8.01641 1.24342 6.86361 1.72094C5.7108 2.19847 4.66373 2.89909 3.78256 3.78256C2.89909 4.66373 2.19847 5.7108 1.72094 6.86361C1.24342 8.01641 0.998417 9.25221 1.00001 10.5C0.998391 11.7478 1.24338 12.9836 1.72091 14.1364C2.19843 15.2892 2.89907 16.3363 3.78256 17.2174C4.66373 18.1009 5.7108 18.8015 6.86361 19.2791C8.01641 19.7566 9.25221 20.0016 10.5 20Z" stroke="#888383" stroke-width="2" stroke-linejoin="round"/>
<path d="M6.7002 10.5L9.55019 13.35L15.2502 7.65002" stroke="#888383" stroke-width="2" stroke-linecap="round" stroke-linejoin="round"/>
<path d="M10.5 62C11.7478 62.0016 12.9836 61.7566 14.1364 61.2791C15.2892 60.8016 16.3363 60.1009 17.2174 59.2174C18.1009 58.3363 18.8016 57.2892 19.2791 56.1364C19.7566 54.9836 20.0016 53.7478 20 52.5C20.0016 51.2522 19.7566 50.0164 19.2791 48.8636C18.8015 47.7108 18.1009 46.6637 17.2174 45.7826C16.3363 44.8991 15.2892 44.1984 14.1364 43.7209C12.9836 43.2434 11.7478 42.9984 10.5 43C9.25221 42.9984 8.01641 43.2434 6.86361 43.7209C5.7108 44.1985 4.66373 44.8991 3.78256 45.7826C2.89909 46.6637 2.19847 47.7108 1.72094 48.8636C1.24342 50.0164 0.998417 51.2522 1.00001 52.5C0.998391 53.7478 1.24338 54.9836 1.72091 56.1364C2.19843 57.2892 2.89907 58.3363 3.78256 59.2174C4.66373 60.1009 5.7108 60.8015 6.86361 61.2791C8.01641 61.7566 9.25221 62.0016 10.5 62Z" stroke="#2F80ED" stroke-width="2" stroke-linejoin="round"/>
<path d="M6.7002 52.5L9.55019 55.35L15.2502 49.65" stroke="#2F80ED" stroke-width="2" stroke-linecap="round" stroke-linejoin="round"/>
<path d="M10.5 62C11.7478 62.0016 12.9836 61.7566 14.1364 61.2791C15.2892 60.8016 16.3363 60.1009 17.2174 59.2174C18.1009 58.3363 18.8016 57.2892 19.2791 56.1364C19.7566 54.9836 20.0016 53.7478 20 52.5C20.0016 51.2522 19.7566 50.0164 19.2791 48.8636C18.8015 47.7108 18.1009 46.6637 17.2174 45.7826C16.3363 44.8991 15.2892 44.1984 14.1364 43.7209C12.9836 43.2434 11.7478 42.9984 10.5 43C9.25221 42.9984 8.01641 43.2434 6.86361 43.7209C5.7108 44.1985 4.66373 44.8991 3.78256 45.7826C2.89909 46.6637 2.19847 47.7108 1.72094 48.8636C1.24342 50.0164 0.998417 51.2522 1.00001 52.5C0.998391 53.7478 1.24338 54.9836 1.72091 56.1364C2.19843 57.2892 2.89907 58.3363 3.78256 59.2174C4.66373 60.1009 5.7108 60.8015 6.86361 61.2791C8.01641 61.7566 9.25221 62.0016 10.5 62Z" stroke="#2F80ED" stroke-width="2" stroke-linejoin="round"/>
<mask id="mask0_74_2807" style="mask-type:luminance" maskUnits="userSpaceOnUse" x="0" y="84" width="21" height="21">
<path d="M10.5 104C11.7478 104.002 12.9836 103.757 14.1364 103.279C15.2892 102.802 16.3363 102.101 17.2174 101.217C18.1009 100.336 18.8016 99.2892 19.2791 98.1364C19.7566 96.9836 20.0016 95.7478 20 94.5C20.0016 93.2522 19.7566 92.0164 19.2791 90.8636C18.8015 89.7108 18.1009 88.6637 17.2174 87.7826C16.3363 86.8991 15.2892 86.1984 14.1364 85.7209C12.9836 85.2434 11.7478 84.9984 10.5 85C9.25221 84.9984 8.01641 85.2434 6.86361 85.7209C5.7108 86.1985 4.66373 86.8991 3.78256 87.7826C2.89909 88.6637 2.19847 89.7108 1.72094 90.8636C1.24342 92.0164 0.998417 93.2522 1.00001 94.5C0.998391 95.7478 1.24338 96.9836 1.72091 98.1364C2.19843 99.2892 2.89907 100.336 3.78256 101.217C4.66373 102.101 5.7108 102.802 6.86361 103.279C8.01641 103.757 9.25221 104.002 10.5 104Z" fill="white" stroke="white" stroke-width="2" stroke-linejoin="round"/>
<path d="M6.7002 94.5L9.55019 97.35L15.2502 91.65" stroke="black" stroke-width="2" stroke-linecap="round" stroke-linejoin="round"/>
</mask>
<g mask="url(#mask0_74_2807)">
<path d="M-0.899902 83.1H21.9001V105.9H-0.899902V83.1Z" fill="#2F80ED"/>
</g>
</svg>
