<svg width="70" height="20" viewBox="0 0 70 20" fill="none" xmlns="http://www.w3.org/2000/svg">
<path d="M10 14.4687C9.83333 14.4687 9.67708 14.4425 9.53125 14.39C9.38542 14.3383 9.25 14.25 9.125 14.125L4.625 9.625C4.39583 9.39583 4.28125 9.10417 4.28125 8.75C4.28125 8.39583 4.39583 8.10417 4.625 7.875C4.85417 7.64583 5.15083 7.52583 5.515 7.515C5.88 7.505 6.17708 7.61458 6.40625 7.84375L8.75 10.1875V1.25C8.75 0.895833 8.87 0.59875 9.11 0.35875C9.34917 0.119584 9.64583 0 10 0C10.3542 0 10.6513 0.119584 10.8913 0.35875C11.1304 0.59875 11.25 0.895833 11.25 1.25V10.1875L13.5938 7.84375C13.8229 7.61458 14.12 7.505 14.485 7.515C14.8492 7.52583 15.1458 7.64583 15.375 7.875C15.6042 8.10417 15.7188 8.39583 15.7188 8.75C15.7188 9.10417 15.6042 9.39583 15.375 9.625L10.875 14.125C10.75 14.25 10.6146 14.3383 10.4688 14.39C10.3229 14.4425 10.1667 14.4687 10 14.4687V14.4687ZM2.5 20C1.8125 20 1.22417 19.7554 0.735 19.2663C0.245 18.7763 0 18.1875 0 17.5V15C0 14.6458 0.119584 14.3487 0.35875 14.1087C0.59875 13.8696 0.895833 13.75 1.25 13.75C1.60417 13.75 1.90125 13.8696 2.14125 14.1087C2.38042 14.3487 2.5 14.6458 2.5 15V17.5H17.5V15C17.5 14.6458 17.62 14.3487 17.86 14.1087C18.0992 13.8696 18.3958 13.75 18.75 13.75C19.1042 13.75 19.4008 13.8696 19.64 14.1087C19.88 14.3487 20 14.6458 20 15V17.5C20 18.1875 19.7554 18.7763 19.2663 19.2663C18.7763 19.7554 18.1875 20 17.5 20H2.5Z" fill="#888383"/>
<path d="M60 14.4687C59.8333 14.4687 59.6771 14.4425 59.5312 14.39C59.3854 14.3383 59.25 14.25 59.125 14.125L54.625 9.625C54.3958 9.39583 54.2813 9.10417 54.2813 8.75C54.2813 8.39583 54.3958 8.10417 54.625 7.875C54.8542 7.64583 55.1508 7.52583 55.515 7.515C55.88 7.505 56.1771 7.61458 56.4062 7.84375L58.75 10.1875V1.25C58.75 0.895833 58.87 0.59875 59.11 0.35875C59.3492 0.119584 59.6458 0 60 0C60.3542 0 60.6513 0.119584 60.8913 0.35875C61.1304 0.59875 61.25 0.895833 61.25 1.25V10.1875L63.5938 7.84375C63.8229 7.61458 64.12 7.505 64.485 7.515C64.8492 7.52583 65.1458 7.64583 65.375 7.875C65.6042 8.10417 65.7188 8.39583 65.7188 8.75C65.7188 9.10417 65.6042 9.39583 65.375 9.625L60.875 14.125C60.75 14.25 60.6146 14.3383 60.4688 14.39C60.3229 14.4425 60.1667 14.4687 60 14.4687V14.4687ZM52.5 20C51.8125 20 51.2242 19.7554 50.735 19.2663C50.245 18.7763 50 18.1875 50 17.5V15C50 14.6458 50.1196 14.3487 50.3588 14.1087C50.5988 13.8696 50.8958 13.75 51.25 13.75C51.6042 13.75 51.9012 13.8696 52.1412 14.1087C52.3804 14.3487 52.5 14.6458 52.5 15V17.5H67.5V15C67.5 14.6458 67.62 14.3487 67.86 14.1087C68.0992 13.8696 68.3958 13.75 68.75 13.75C69.1042 13.75 69.4008 13.8696 69.64 14.1087C69.88 14.3487 70 14.6458 70 15V17.5C70 18.1875 69.7554 18.7763 69.2663 19.2663C68.7763 19.7554 68.1875 20 67.5 20H52.5Z" fill="#2F80ED"/>
</svg>
