<svg width="15" height="16" viewBox="0 0 15 16" fill="none" xmlns="http://www.w3.org/2000/svg">
<g clip-path="url(#clip0_9_2940)">
<path d="M14.863 14.8354L10.3084 10.2529C11.1573 9.23621 11.6689 7.92816 11.6689 6.49988C11.6689 3.26386 9.04559 0.640503 5.80957 0.640503C2.57355 0.640503 -0.0498047 3.26386 -0.0498047 6.49988C-0.0498047 9.73589 2.57355 12.3593 5.80957 12.3593C7.27981 12.3593 8.62277 11.8164 9.65168 10.9216L14.2 15.4985C14.383 15.6815 14.68 15.6815 14.863 15.4985C15.0458 15.3154 15.0458 15.0187 14.863 14.8354H14.863ZM5.80957 11.4295C3.08707 11.4295 0.879961 9.22238 0.879961 6.49988C0.879961 3.77738 3.08707 1.57027 5.80957 1.57027C8.53207 1.57027 10.7392 3.77738 10.7392 6.49988C10.7392 9.22238 8.53207 11.4295 5.80957 11.4295Z" fill="black"/>
</g>
<defs>
<clipPath id="clip0_9_2940">
<rect width="15" height="15" fill="white" transform="translate(0 0.640503)"/>
</clipPath>
</defs>
</svg>
