<svg width="75" height="20" viewBox="0 0 75 20" fill="none" xmlns="http://www.w3.org/2000/svg">
<path d="M12.4688 16.2812L17.5 11.25L12.4688 6.21875L10.7188 7.96875L12.75 10H7.5V12.5H12.75L10.7188 14.5312L12.4688 16.2812ZM0 20V0H10L12.5 2.5H25V20H0ZM2.5 17.5H22.5V5H11.4688L8.96875 2.5H2.5V17.5ZM2.5 17.5V2.5V5V17.5Z" fill="#888383"/>
<path d="M61.9688 16.2812L67 11.25L61.9688 6.21875L60.2188 7.96875L62.25 10H57V12.5H62.25L60.2188 14.5312L61.9688 16.2812ZM49.5 20V0H59.5L62 2.5H74.5V20H49.5ZM52 17.5H72V5H60.9688L58.4688 2.5H52V17.5ZM52 17.5V2.5V5V17.5Z" fill="#2F80ED"/>
</svg>
