<svg width="64" height="63" viewBox="0 0 64 63" fill="none" xmlns="http://www.w3.org/2000/svg">
<path d="M55.1944 31.3208C55.1944 31.7101 55.0391 32.0836 54.7627 32.3589C54.4863 32.6342 54.1113 32.7889 53.7204 32.7889H33.5749V52.8538C33.5749 53.2432 33.4196 53.6166 33.1432 53.8919C32.8668 54.1673 32.4918 54.3219 32.1009 54.3219C31.7099 54.3219 31.335 54.1673 31.0586 53.8919C30.7821 53.6166 30.6268 53.2432 30.6268 52.8538V32.7889H10.4814C10.0904 32.7889 9.7155 32.6342 9.43907 32.3589C9.16263 32.0836 9.00732 31.7101 9.00732 31.3208C9.00732 30.9314 9.16263 30.5579 9.43907 30.2826C9.7155 30.0073 10.0904 29.8526 10.4814 29.8526H30.6268V9.78774C30.6268 9.39836 30.7821 9.02493 31.0586 8.74959C31.335 8.47426 31.7099 8.31958 32.1009 8.31958C32.4918 8.31958 32.8668 8.47426 33.1432 8.74959C33.4196 9.02493 33.5749 9.39836 33.5749 9.78774V29.8526H53.7204C54.1113 29.8526 54.4863 30.0073 54.7627 30.2826C55.0391 30.5579 55.1944 30.9314 55.1944 31.3208Z" fill="#2F80ED"/>
</svg>
