<svg width="75" height="30" viewBox="0 0 75 30" fill="none" xmlns="http://www.w3.org/2000/svg">
<path d="M61.25 3.75V5H55V7.5H56.25V23.75C56.25 24.413 56.5134 25.0489 56.9822 25.5178C57.4511 25.9866 58.087 26.25 58.75 26.25H71.25C71.913 26.25 72.5489 25.9866 73.0178 25.5178C73.4866 25.0489 73.75 24.413 73.75 23.75V7.5H75V5H68.75V3.75H61.25ZM58.75 7.5H71.25V23.75H58.75V7.5ZM61.25 10V21.25H63.75V10H61.25ZM66.25 10V21.25H68.75V10H66.25Z" fill="#2F80ED"/>
<path d="M11.25 3.75V5H5V7.5H6.25V23.75C6.25 24.413 6.51339 25.0489 6.98223 25.5178C7.45107 25.9866 8.08696 26.25 8.75 26.25H21.25C21.913 26.25 22.5489 25.9866 23.0178 25.5178C23.4866 25.0489 23.75 24.413 23.75 23.75V7.5H25V5H18.75V3.75H11.25ZM8.75 7.5H21.25V23.75H8.75V7.5ZM11.25 10V21.25H13.75V10H11.25ZM16.25 10V21.25H18.75V10H16.25Z" fill="#888383"/>
</svg>
